# xmcd
#
# Track frame offsets:
# 150
# 71817
# 127353
# 220227
# 286235
#
# Disc length: 4411 seconds
#
# Revision: 0
# Processed by: cddbd v1.5.1PL2 Copyright (c) Steve Scherf et al.
# Submitted via: Audion 3.0.2 (http://www.panic.com/audion/)
#
DISCID=55113905
DTITLE=Åke Edwardson - CD-BOK 08.09
DYEAR=1900
DGENRE=
TTITLE0=Kapitel 26
TTITLE1=Kapitel 27
TTITLE2=Kapitel 28
TTITLE3=Kapitel 29
TTITLE4=Kapitel 30
EXTD=
EXTT0=
EXTT1=
EXTT2=
EXTT3=
EXTT4=
PLAYORDER=
